<svg xmlns="http://www.w3.org/2000/svg" width="320" height="320" viewBox="0 0 320 320" role="img" aria-label="辞書くん">
  <defs>
    <linearGradient id="g1" x1="0" y1="0" x2="1" y2="1">
      <stop offset="0%" stop-color="#8ecbff"/>
      <stop offset="100%" stop-color="#3d8fe2"/>
    </linearGradient>
    <linearGradient id="g2" x1="0" y1="0" x2="0" y2="1">
      <stop offset="0%" stop-color="#ffffff"/>
      <stop offset="100%" stop-color="#d9ebff"/>
    </linearGradient>
  </defs>

  <ellipse cx="160" cy="282" rx="76" ry="14" fill="#0d2a46" opacity="0.22"/>

  <rect x="72" y="66" width="176" height="188" rx="28" fill="url(#g1)"/>
  <rect x="86" y="80" width="148" height="160" rx="18" fill="url(#g2)"/>

  <circle cx="132" cy="150" r="8" fill="#1f2b3a"/>
  <circle cx="188" cy="150" r="8" fill="#1f2b3a"/>
  <circle cx="129" cy="147" r="2" fill="#ffffff" opacity="0.65"/>
  <circle cx="185" cy="147" r="2" fill="#ffffff" opacity="0.65"/>

  <path d="M130 188 Q160 210 190 188" fill="none" stroke="#1f2b3a" stroke-width="6" stroke-linecap="round"/>

  <path d="M90 198 Q66 210 58 236" fill="none" stroke="#3d8fe2" stroke-width="10" stroke-linecap="round"/>
  <path d="M230 198 Q254 210 262 236" fill="none" stroke="#3d8fe2" stroke-width="10" stroke-linecap="round"/>

  <ellipse cx="56" cy="240" rx="16" ry="12" fill="#8ecbff"/>
  <ellipse cx="264" cy="240" rx="16" ry="12" fill="#8ecbff"/>

  <path d="M90 254 Q120 274 138 274" fill="none" stroke="#3d8fe2" stroke-width="10" stroke-linecap="round"/>
  <path d="M230 254 Q200 274 182 274" fill="none" stroke="#3d8fe2" stroke-width="10" stroke-linecap="round"/>

  <ellipse cx="140" cy="280" rx="14" ry="10" fill="#8ecbff"/>
  <ellipse cx="180" cy="280" rx="14" ry="10" fill="#8ecbff"/>

  <circle cx="250" cy="88" r="10" fill="#67b9ff" opacity="0.75"/>
  <circle cx="66" cy="108" r="7" fill="#67b9ff" opacity="0.55"/>
</svg>
