<svg xmlns="http://www.w3.org/2000/svg" width="250" height="44" viewBox="0 0 250 44" role="img" aria-labelledby="title desc">
  <title id="title">辞書.app logo</title>
  <desc id="desc">辞書.app wordmark with blue app icon</desc>
  <defs>
    <linearGradient id="g" x1="0" y1="0" x2="1" y2="1">
      <stop offset="0%" stop-color="#8fd0ff"/>
      <stop offset="100%" stop-color="#3f8edc"/>
    </linearGradient>
  </defs>
  <rect x="2" y="2" width="40" height="40" rx="13" fill="#161b20"/>
  <rect x="2" y="2" width="40" height="40" rx="13" fill="none" stroke="#2d3640" stroke-width="1.2"/>
  <path d="M13 13h18a3 3 0 0 1 3 3v15a3 3 0 0 1-3 3H13a3 3 0 0 1-3-3V16a3 3 0 0 1 3-3Z" fill="url(#g)"/>
  <path d="M22 13v21" stroke="#0f1113" stroke-width="1.4" opacity=".45"/>
  <path d="M14.8 16.4h5.6" stroke="#0f1113" stroke-width="1.4" stroke-linecap="round" opacity=".6"/>
  <path d="M24.2 16.4h5.6" stroke="#0f1113" stroke-width="1.4" stroke-linecap="round" opacity=".6"/>
  <circle cx="14.5" cy="19.5" r="1.2" fill="#0f1113" opacity=".65"/>
  <circle cx="29.5" cy="19.5" r="1.2" fill="#0f1113" opacity=".65"/>
  <text x="54" y="29" font-size="24" font-family="'Noto Sans JP','Avenir Next',sans-serif" font-weight="700" fill="#8fd0ff" letter-spacing=".1">辞書.app</text>
</svg>
